<svg version="1.1" xmlns="http://www.w3.org/2000/svg" xmlns:xlink="http://www.w3.org/1999/xlink" width="1061.6708984375" height="643"><defs/><g><g transform="translate(2,-6) scale(1,1)"><rect fill="#C0C0C0" stroke="none" x="175" y="23" width="727" height="623" opacity="0.2"/></g><g transform="translate(2,-6) scale(1,1)"><rect fill="#ffffff" stroke="none" x="168" y="16" width="727" height="623"/></g><g transform="translate(2,-6) scale(1,1)"><path fill="none" stroke="#000000" d="M 168 16 L 895 16 L 895 639 L 168 639 L 168 16 Z Z" stroke-miterlimit="10"/></g><g transform="translate(2,-6) scale(1,1)"><g><path fill="none" stroke="none"/><text fill="#000000" stroke="none" font-family="Arial" font-size="13px" font-style="normal" font-weight="bold" text-decoration="none" x="498.984130859375" y="35.5">Use case 1</text></g></g><g transform="translate(2,-6) scale(1,1)"><path fill="#ffffff" stroke="none" d="M 90.01667311789772 35.89 C 90.01667311789772 29.875618528 94.83799600255227 25 100.785400390625 25 C 106.73280477869773 25 111.55412766335228 29.875618528 111.55412766335228 35.89 C 111.55412766335228 41.904381472 106.73280477869773 46.78 100.785400390625 46.78 C 94.83799600255227 46.78 90.01667311789772 41.904381472 90.01667311789772 35.89 Z"/></g><g transform="translate(2,-6) scale(1,1)"><path fill="none" stroke="#000000" d="M 90.01667311789772 35.89 C 90.01667311789772 29.875618528 94.83799600255227 25 100.785400390625 25 C 106.73280477869773 25 111.55412766335228 29.875618528 111.55412766335228 35.89 C 111.55412766335228 41.904381472 106.73280477869773 46.78 100.785400390625 46.78 C 94.83799600255227 46.78 90.01667311789772 41.904381472 90.01667311789772 35.89 Z" stroke-miterlimit="10"/></g><g transform="translate(2,-6) scale(1,1)"><path fill="none" stroke="#000000" d="M 100.785400390625 46.78 L 100.785400390625 68.22" stroke-miterlimit="10"/></g><g transform="translate(2,-6) scale(1,1)"><path fill="none" stroke="#000000" d="M 89.38321857244318 54.82 L 112.18758220880682 54.82" stroke-miterlimit="10"/></g><g transform="translate(2,-6) scale(1,1)"><path fill="none" stroke="#000000" d="M 100.785400390625 68.22 L 84.94903675426136 90" stroke-miterlimit="10"/></g><g transform="translate(2,-6) scale(1,1)"><path fill="none" stroke="#000000" d="M 100.785400390625 68.22 L 116.62176402698864 90" stroke-miterlimit="10"/></g><g transform="translate(2,-6) scale(1,1)"><path fill="none" stroke="#000000" d="M 56 116 L 145.57080078125 116" stroke-miterlimit="10"/></g><g transform="translate(2,-6) scale(1,1)"><g><path fill="none" stroke="none"/><text fill="#000000" stroke="none" font-family="Arial" font-size="13px" font-style="normal" font-weight="bold" text-decoration="none" x="83.443603515625" y="110.5">Guest</text></g></g><g transform="translate(2,-6) scale(1,1)"><path fill="#ffffff" stroke="none" d="M 89.27751438210227 257.68 C 89.27751438210227 252.886167936 93.16335670704773 249 97.956787109375 249 C 102.75021751170227 249 106.63605983664773 252.886167936 106.63605983664773 257.68 C 106.63605983664773 262.473832064 102.75021751170227 266.36 97.956787109375 266.36 C 93.16335670704773 266.36 89.27751438210227 262.473832064 89.27751438210227 257.68 Z"/></g><g transform="translate(2,-6) scale(1,1)"><path fill="none" stroke="#000000" d="M 89.27751438210227 257.68 C 89.27751438210227 252.886167936 93.16335670704773 249 97.956787109375 249 C 102.75021751170227 249 106.63605983664773 252.886167936 106.63605983664773 257.68 C 106.63605983664773 262.473832064 102.75021751170227 266.36 97.956787109375 266.36 C 93.16335670704773 266.36 89.27751438210227 262.473832064 89.27751438210227 257.68 Z" stroke-miterlimit="10"/></g><g transform="translate(2,-6) scale(1,1)"><path fill="none" stroke="#000000" d="M 97.956787109375 266.36 L 97.956787109375 283.64" stroke-miterlimit="10"/></g><g transform="translate(2,-6) scale(1,1)"><path fill="none" stroke="#000000" d="M 88.76696892755682 272.84 L 107.14660529119318 272.84" stroke-miterlimit="10"/></g><g transform="translate(2,-6) scale(1,1)"><path fill="none" stroke="#000000" d="M 97.956787109375 283.64 L 85.19315074573863 301" stroke-miterlimit="10"/></g><g transform="translate(2,-6) scale(1,1)"><path fill="none" stroke="#000000" d="M 97.956787109375 283.64 L 110.72042347301137 301" stroke-miterlimit="10"/></g><g transform="translate(2,-6) scale(1,1)"><g><path fill="none" stroke="none"/><text fill="#000000" stroke="none" font-family="Arial" font-size="13px" font-style="normal" font-weight="bold" text-decoration="none" x="48.09912109375" y="321.5">Registered Client</text></g></g><g transform="translate(2,-6) scale(1,1)"><path fill="#ffffff" stroke="none" d="M 71.36613742897727 529.6800000000001 C 71.36613742897727 524.8861679360001 75.25197975392273 521 80.04541015625 521 C 84.83884055857727 521 88.72468288352273 524.8861679360001 88.72468288352273 529.6800000000001 C 88.72468288352273 534.473832064 84.83884055857727 538.36 80.04541015625 538.36 C 75.25197975392273 538.36 71.36613742897727 534.473832064 71.36613742897727 529.6800000000001 Z"/></g><g transform="translate(2,-6) scale(1,1)"><path fill="none" stroke="#000000" d="M 71.36613742897727 529.6800000000001 C 71.36613742897727 524.8861679360001 75.25197975392273 521 80.04541015625 521 C 84.83884055857727 521 88.72468288352273 524.8861679360001 88.72468288352273 529.6800000000001 C 88.72468288352273 534.473832064 84.83884055857727 538.36 80.04541015625 538.36 C 75.25197975392273 538.36 71.36613742897727 534.473832064 71.36613742897727 529.6800000000001 Z" stroke-miterlimit="10"/></g><g transform="translate(2,-6) scale(1,1)"><path fill="none" stroke="#000000" d="M 80.04541015625 538.36 L 80.04541015625 555.64" stroke-miterlimit="10"/></g><g transform="translate(2,-6) scale(1,1)"><path fill="none" stroke="#000000" d="M 70.85559197443182 544.84 L 89.23522833806818 544.84" stroke-miterlimit="10"/></g><g transform="translate(2,-6) scale(1,1)"><path fill="none" stroke="#000000" d="M 80.04541015625 555.64 L 67.28177379261363 573" stroke-miterlimit="10"/></g><g transform="translate(2,-6) scale(1,1)"><path fill="none" stroke="#000000" d="M 80.04541015625 555.64 L 92.80904651988637 573" stroke-miterlimit="10"/></g><g transform="translate(2,-6) scale(1,1)"><g><path fill="none" stroke="none"/><text fill="#000000" stroke="none" font-family="Arial" font-size="13px" font-style="normal" font-weight="bold" text-decoration="none" x="18.279541015625" y="593.5">System Administrator</text></g></g><g transform="translate(2,-6) scale(1,1)"><path fill="#C0C0C0" stroke="none" d="M 247 296 C 247 286.6111584 294.6816688 279 353.5 279 C 412.3183312 279 460 286.6111584 460 296 C 460 305.3888416 412.3183312 313 353.5 313 C 294.6816688 313 247 305.3888416 247 296 Z" opacity="0.2"/></g><g transform="translate(2,-6) scale(1,1)"><path fill="#ffffff" stroke="none" d="M 240 289 C 240 279.6111584 287.6816688 272 346.5 272 C 405.3183312 272 453 279.6111584 453 289 C 453 298.3888416 405.3183312 306 346.5 306 C 287.6816688 306 240 298.3888416 240 289 Z"/></g><g transform="translate(2,-6) scale(1,1)"><path fill="none" stroke="#000000" d="M 240 289 C 240 279.6111584 287.6816688 272 346.5 272 C 405.3183312 272 453 279.6111584 453 289 C 453 298.3888416 405.3183312 306 346.5 306 C 287.6816688 306 240 298.3888416 240 289 Z" stroke-miterlimit="10"/></g><g transform="translate(2,-6) scale(1,1)"><g><path fill="none" stroke="none"/><text fill="#000000" stroke="none" font-family="Arial" font-size="13px" font-style="normal" font-weight="bold" text-decoration="none" x="281.103271484375" y="296">Registered Client login</text></g></g><g transform="translate(2,-6) scale(1,1)"><path fill="none" stroke="#000000" d="M 157 287 L 239 288" stroke-miterlimit="10"/></g><g transform="translate(2,-6) scale(1,1)"><path fill="none" stroke="#000000" d="M 228.7867489941989 292.0852789246883 L 239 288 L 228.88941252515212 283.6668693865233" stroke-miterlimit="10"/></g><g transform="translate(2,-6) scale(1,1)"><path fill="#C0C0C0" stroke="none" d="M 199 488 C 199 478.6111584 225.6390544 471 258.5 471 C 291.3609456 471 318 478.6111584 318 488 C 318 497.3888416 291.3609456 505 258.5 505 C 225.6390544 505 199 497.3888416 199 488 Z" opacity="0.2"/></g><g transform="translate(2,-6) scale(1,1)"><path fill="#ffffff" stroke="none" d="M 192 481 C 192 471.6111584 218.6390544 464 251.5 464 C 284.3609456 464 311 471.6111584 311 481 C 311 490.3888416 284.3609456 498 251.5 498 C 218.6390544 498 192 490.3888416 192 481 Z"/></g><g transform="translate(2,-6) scale(1,1)"><path fill="none" stroke="#000000" d="M 192 481 C 192 471.6111584 218.6390544 464 251.5 464 C 284.3609456 464 311 471.6111584 311 481 C 311 490.3888416 284.3609456 498 251.5 498 C 218.6390544 498 192 490.3888416 192 481 Z" stroke-miterlimit="10"/></g><g transform="translate(2,-6) scale(1,1)"><g><path fill="none" stroke="none"/><text fill="#000000" stroke="none" font-family="Arial" font-size="13px" font-style="normal" font-weight="bold" text-decoration="none" x="217.536865234375" y="488">Admin login</text></g></g><g transform="translate(2,-6) scale(1,1)"><path fill="none" stroke="#000000" d="M 153 526 L 212 499" stroke-miterlimit="10"/></g><g transform="translate(2,-6) scale(1,1)"><path fill="none" stroke="#000000" d="M 204.510680649481 507.05668018888315 L 212 499 L 201.00731830536583 499.401184696187" stroke-miterlimit="10"/></g><g transform="translate(2,-6) scale(1,1)"><path fill="#C0C0C0" stroke="none" d="M 335 432 C 335 422.6111584 357.6096176 415 385.5 415 C 413.3903824 415 436 422.6111584 436 432 C 436 441.3888416 413.3903824 449 385.5 449 C 357.6096176 449 335 441.3888416 335 432 Z" opacity="0.2"/></g><g transform="translate(2,-6) scale(1,1)"><path fill="#ffffff" stroke="none" d="M 328 425 C 328 415.6111584 350.6096176 408 378.5 408 C 406.3903824 408 429 415.6111584 429 425 C 429 434.3888416 406.3903824 442 378.5 442 C 350.6096176 442 328 434.3888416 328 425 Z"/></g><g transform="translate(2,-6) scale(1,1)"><path fill="none" stroke="#000000" d="M 328 425 C 328 415.6111584 350.6096176 408 378.5 408 C 406.3903824 408 429 415.6111584 429 425 C 429 434.3888416 406.3903824 442 378.5 442 C 350.6096176 442 328 434.3888416 328 425 Z" stroke-miterlimit="10"/></g><g transform="translate(2,-6) scale(1,1)"><g><path fill="none" stroke="none"/><text fill="#000000" stroke="none" font-family="Arial" font-size="13px" font-style="normal" font-weight="bold" text-decoration="none" x="362.595947265625" y="432">Login</text></g></g><g transform="translate(2,-6) scale(1,1)"><path fill="none" stroke="#000000" d="M 350 307 L 374 407" stroke-miterlimit="10"/></g><g transform="translate(2,-6) scale(1,1)"><path fill="#FFFFFF" stroke="none" d="M 361.07004990003605 389.20066320301675 L 374 407 L 377.44317635368196 385.27111285414173"/></g><g transform="translate(2,-6) scale(1,1)"><path fill="none" stroke="#000000" d="M 361.07004990003605 389.20066320301675 L 374 407 L 377.44317635368196 385.27111285414173 L 361.07004990003605 389.20066320301675" stroke-miterlimit="10"/></g><g transform="translate(2,-6) scale(1,1)"><path fill="none" stroke="#000000" d="M 292 463 L 337 443" stroke-miterlimit="10"/></g><g transform="translate(2,-6) scale(1,1)"><path fill="#FFFFFF" stroke="none" d="M 321.8457548689668 458.9483182344897 L 337 443 L 315.00716653195445 443.561494476212"/></g><g transform="translate(2,-6) scale(1,1)"><path fill="none" stroke="#000000" d="M 321.8457548689668 458.9483182344897 L 337 443 L 315.00716653195445 443.561494476212 L 321.8457548689668 458.9483182344897" stroke-miterlimit="10"/></g><g transform="translate(2,-6) scale(1,1)"><path fill="#C0C0C0" stroke="none" d="M 223 80 C 223 70.6111584 249.862912 63 283 63 C 316.137088 63 343 70.6111584 343 80 C 343 89.3888416 316.137088 97 283 97 C 249.862912 97 223 89.3888416 223 80 Z" opacity="0.2"/></g><g transform="translate(2,-6) scale(1,1)"><path fill="#ffffff" stroke="none" d="M 216 73 C 216 63.6111584 242.862912 56 276 56 C 309.137088 56 336 63.6111584 336 73 C 336 82.3888416 309.137088 90 276 90 C 242.862912 90 216 82.3888416 216 73 Z"/></g><g transform="translate(2,-6) scale(1,1)"><path fill="none" stroke="#000000" d="M 216 73 C 216 63.6111584 242.862912 56 276 56 C 309.137088 56 336 63.6111584 336 73 C 336 82.3888416 309.137088 90 276 90 C 242.862912 90 216 82.3888416 216 73 Z" stroke-miterlimit="10"/></g><g transform="translate(2,-6) scale(1,1)"><g><path fill="none" stroke="none"/><text fill="#000000" stroke="none" font-family="Arial" font-size="13px" font-style="normal" font-weight="bold" text-decoration="none" x="241.31640625" y="80">Registration</text></g></g><g transform="translate(2,-6) scale(1,1)"><path fill="#C0C0C0" stroke="none" d="M 399 488 C 399 478.6111584 452.2781088 471 518 471 C 583.7218912 471 637 478.6111584 637 488 C 637 497.3888416 583.7218912 505 518 505 C 452.2781088 505 399 497.3888416 399 488 Z" opacity="0.2"/></g><g transform="translate(2,-6) scale(1,1)"><path fill="#ffffff" stroke="none" d="M 392 481 C 392 471.6111584 445.2781088 464 511 464 C 576.7218912 464 630 471.6111584 630 481 C 630 490.3888416 576.7218912 498 511 498 C 445.2781088 498 392 490.3888416 392 481 Z"/></g><g transform="translate(2,-6) scale(1,1)"><path fill="none" stroke="#000000" d="M 392 481 C 392 471.6111584 445.2781088 464 511 464 C 576.7218912 464 630 471.6111584 630 481 C 630 490.3888416 576.7218912 498 511 498 C 445.2781088 498 392 490.3888416 392 481 Z" stroke-miterlimit="10"/></g><g transform="translate(2,-6) scale(1,1)"><g><path fill="none" stroke="none"/><text fill="#000000" stroke="none" font-family="Arial" font-size="13px" font-style="normal" font-weight="bold" text-decoration="none" x="443.445068359375" y="488">Administrate processes</text></g></g><g transform="translate(2,-6) scale(1,1)"><path fill="none" stroke="#000000" d="M 153 546 L 412 499" stroke-miterlimit="10"/></g><g transform="translate(2,-6) scale(1,1)"><path fill="none" stroke="#000000" d="M 402.75224696459117 504.9564304575884 L 412 499 L 401.2490187496971 496.6726834861508" stroke-miterlimit="10"/></g><g transform="translate(2,-6) scale(1,1)"><path fill="#C0C0C0" stroke="none" d="M 639 592 C 639 582.6111584 665.4151968 575 698 575 C 730.5848032 575 757 582.6111584 757 592 C 757 601.3888416 730.5848032 609 698 609 C 665.4151968 609 639 601.3888416 639 592 Z" opacity="0.2"/></g><g transform="translate(2,-6) scale(1,1)"><path fill="#ffffff" stroke="none" d="M 632 585 C 632 575.6111584 658.4151968 568 691 568 C 723.5848032 568 750 575.6111584 750 585 C 750 594.3888416 723.5848032 602 691 602 C 658.4151968 602 632 594.3888416 632 585 Z"/></g><g transform="translate(2,-6) scale(1,1)"><path fill="none" stroke="#000000" d="M 632 585 C 632 575.6111584 658.4151968 568 691 568 C 723.5848032 568 750 575.6111584 750 585 C 750 594.3888416 723.5848032 602 691 602 C 658.4151968 602 632 594.3888416 632 585 Z" stroke-miterlimit="10"/></g><g transform="translate(2,-6) scale(1,1)"><g><path fill="none" stroke="none"/><text fill="#000000" stroke="none" font-family="Arial" font-size="13px" font-style="normal" font-weight="bold" text-decoration="none" x="655.583251953125" y="592">Update data</text></g></g><g transform="translate(2,-6) scale(1,1)"><path fill="#C0C0C0" stroke="none" d="M 391 624 C 391 614.6111584 451.6654096 607 526.5 607 C 601.3345904 607 662 614.6111584 662 624 C 662 633.3888416 601.3345904 641 526.5 641 C 451.6654096 641 391 633.3888416 391 624 Z" opacity="0.2"/></g><g transform="translate(2,-6) scale(1,1)"><path fill="#ffffff" stroke="none" d="M 384 617 C 384 607.6111584 444.6654096 600 519.5 600 C 594.3345904 600 655 607.6111584 655 617 C 655 626.3888416 594.3345904 634 519.5 634 C 444.6654096 634 384 626.3888416 384 617 Z"/></g><g transform="translate(2,-6) scale(1,1)"><path fill="none" stroke="#000000" d="M 384 617 C 384 607.6111584 444.6654096 600 519.5 600 C 594.3345904 600 655 607.6111584 655 617 C 655 626.3888416 594.3345904 634 519.5 634 C 444.6654096 634 384 626.3888416 384 617 Z" stroke-miterlimit="10"/></g><g transform="translate(2,-6) scale(1,1)"><g><path fill="none" stroke="none"/><text fill="#000000" stroke="none" font-family="Arial" font-size="13px" font-style="normal" font-weight="bold" text-decoration="none" x="434.2255859375" y="624">Manage business procedures</text></g></g><g transform="translate(2,-6) scale(1,1)"><path fill="none" stroke="#000000" d="M 147 74 L 215 74" stroke-miterlimit="10"/></g><g transform="translate(2,-6) scale(1,1)"><path fill="none" stroke="#000000" d="M 204.83732514237585 78.20951775601598 L 215 74 L 204.83732514237585 69.79048224398402" stroke-miterlimit="10"/></g><g transform="translate(2,-6) scale(1,1)"><path fill="#C0C0C0" stroke="none" d="M 647 280 C 647 270.6111584 689.0852288 263 741 263 C 792.9147712 263 835 270.6111584 835 280 C 835 289.3888416 792.9147712 297 741 297 C 689.0852288 297 647 289.3888416 647 280 Z" opacity="0.2"/></g><g transform="translate(2,-6) scale(1,1)"><path fill="#ffffff" stroke="none" d="M 640 273 C 640 263.6111584 682.0852288 256 734 256 C 785.9147712 256 828 263.6111584 828 273 C 828 282.3888416 785.9147712 290 734 290 C 682.0852288 290 640 282.3888416 640 273 Z"/></g><g transform="translate(2,-6) scale(1,1)"><path fill="none" stroke="#000000" d="M 640 273 C 640 263.6111584 682.0852288 256 734 256 C 785.9147712 256 828 263.6111584 828 273 C 828 282.3888416 785.9147712 290 734 290 C 682.0852288 290 640 282.3888416 640 273 Z" stroke-miterlimit="10"/></g><g transform="translate(2,-6) scale(1,1)"><g><path fill="none" stroke="none"/><text fill="#000000" stroke="none" font-family="Arial" font-size="13px" font-style="normal" font-weight="bold" text-decoration="none" x="675.833251953125" y="280">Reservation of a car</text></g></g><g transform="translate(2,-6) scale(1,1)"><path fill="#C0C0C0" stroke="none" d="M 607 208 C 607 198.6111584 669.680128 191 747 191 C 824.319872 191 887 198.6111584 887 208 C 887 217.3888416 824.319872 225 747 225 C 669.680128 225 607 217.3888416 607 208 Z" opacity="0.2"/></g><g transform="translate(2,-6) scale(1,1)"><path fill="#ffffff" stroke="none" d="M 600 201 C 600 191.6111584 662.680128 184 740 184 C 817.319872 184 880 191.6111584 880 201 C 880 210.3888416 817.319872 218 740 218 C 662.680128 218 600 210.3888416 600 201 Z"/></g><g transform="translate(2,-6) scale(1,1)"><path fill="none" stroke="#000000" d="M 600 201 C 600 191.6111584 662.680128 184 740 184 C 817.319872 184 880 191.6111584 880 201 C 880 210.3888416 817.319872 218 740 218 C 662.680128 218 600 210.3888416 600 201 Z" stroke-miterlimit="10"/></g><g transform="translate(2,-6) scale(1,1)"><g><path fill="none" stroke="none"/><text fill="#000000" stroke="none" font-family="Arial" font-size="13px" font-style="normal" font-weight="bold" text-decoration="none" x="657.978759765625" y="208">Manage account information</text></g></g><g transform="translate(2,-6) scale(1,1)"><path fill="#C0C0C0" stroke="none" d="M 591 368 C 591 358.6111584 636.890808 351 693.5 351 C 750.109192 351 796 358.6111584 796 368 C 796 377.3888416 750.109192 385 693.5 385 C 636.890808 385 591 377.3888416 591 368 Z" opacity="0.2"/></g><g transform="translate(2,-6) scale(1,1)"><path fill="#ffffff" stroke="none" d="M 584 361 C 584 351.6111584 629.890808 344 686.5 344 C 743.109192 344 789 351.6111584 789 361 C 789 370.3888416 743.109192 378 686.5 378 C 629.890808 378 584 370.3888416 584 361 Z"/></g><g transform="translate(2,-6) scale(1,1)"><path fill="none" stroke="#000000" d="M 584 361 C 584 351.6111584 629.890808 344 686.5 344 C 743.109192 344 789 351.6111584 789 361 C 789 370.3888416 743.109192 378 686.5 378 C 629.890808 378 584 370.3888416 584 361 Z" stroke-miterlimit="10"/></g><g transform="translate(2,-6) scale(1,1)"><g><path fill="none" stroke="none"/><text fill="#000000" stroke="none" font-family="Arial" font-size="13px" font-style="normal" font-weight="bold" text-decoration="none" x="628.330078125" y="368">Delete a reservation</text></g></g><g transform="translate(2,-6) scale(1,1)"><path fill="none" stroke="#000000" d="M 696 343 L 724 291" stroke-miterlimit="10" stroke-dasharray="3"/></g><g transform="translate(2,-6) scale(1,1)"><path fill="none" stroke="#000000" d="M 722.8882363772193 301.94367313323374 L 724 291 L 715.4755189196567 297.95220988685384" stroke-miterlimit="10"/></g><g transform="translate(2,-6) scale(1,1)"><path fill="#C0C0C0" stroke="none" d="M 615 160 C 615 150.6111584 640.5197664 143 672 143 C 703.4802336 143 729 150.6111584 729 160 C 729 169.3888416 703.4802336 177 672 177 C 640.5197664 177 615 169.3888416 615 160 Z" opacity="0.2"/></g><g transform="translate(2,-6) scale(1,1)"><path fill="#ffffff" stroke="none" d="M 608 153 C 608 143.6111584 633.5197664 136 665 136 C 696.4802336 136 722 143.6111584 722 153 C 722 162.3888416 696.4802336 170 665 170 C 633.5197664 170 608 162.3888416 608 153 Z"/></g><g transform="translate(2,-6) scale(1,1)"><path fill="none" stroke="#000000" d="M 608 153 C 608 143.6111584 633.5197664 136 665 136 C 696.4802336 136 722 143.6111584 722 153 C 722 162.3888416 696.4802336 170 665 170 C 633.5197664 170 608 162.3888416 608 153 Z" stroke-miterlimit="10"/></g><g transform="translate(2,-6) scale(1,1)"><g><path fill="none" stroke="none"/><text fill="#000000" stroke="none" font-family="Arial" font-size="13px" font-style="normal" font-weight="bold" text-decoration="none" x="631.754150390625" y="160">Obtain help</text></g></g><g transform="translate(2,-6) scale(1,1)"><path fill="#ffffff" stroke="none" d="M 980.1561764914773 97.68 C 980.1561764914773 92.886167936 984.0420188164227 89 988.83544921875 89 C 993.6288796210773 89 997.5147219460227 92.886167936 997.5147219460227 97.68 C 997.5147219460227 102.473832064 993.6288796210773 106.36 988.83544921875 106.36 C 984.0420188164227 106.36 980.1561764914773 102.473832064 980.1561764914773 97.68 Z"/></g><g transform="translate(2,-6) scale(1,1)"><path fill="none" stroke="#000000" d="M 980.1561764914773 97.68 C 980.1561764914773 92.886167936 984.0420188164227 89 988.83544921875 89 C 993.6288796210773 89 997.5147219460227 92.886167936 997.5147219460227 97.68 C 997.5147219460227 102.473832064 993.6288796210773 106.36 988.83544921875 106.36 C 984.0420188164227 106.36 980.1561764914773 102.473832064 980.1561764914773 97.68 Z" stroke-miterlimit="10"/></g><g transform="translate(2,-6) scale(1,1)"><path fill="none" stroke="#000000" d="M 988.83544921875 106.36 L 988.83544921875 123.64" stroke-miterlimit="10"/></g><g transform="translate(2,-6) scale(1,1)"><path fill="none" stroke="#000000" d="M 979.6456310369318 112.84 L 998.0252674005682 112.84" stroke-miterlimit="10"/></g><g transform="translate(2,-6) scale(1,1)"><path fill="none" stroke="#000000" d="M 988.83544921875 123.64 L 976.0718128551136 141" stroke-miterlimit="10"/></g><g transform="translate(2,-6) scale(1,1)"><path fill="none" stroke="#000000" d="M 988.83544921875 123.64 L 1001.5990855823864 141" stroke-miterlimit="10"/></g><g transform="translate(2,-6) scale(1,1)"><g><path fill="none" stroke="none"/><text fill="#000000" stroke="none" font-family="Arial" font-size="13px" font-style="normal" font-weight="bold" text-decoration="none" x="937.175048828125" y="161.5">Customer support</text></g></g><g transform="translate(2,-6) scale(1,1)"><path fill="none" stroke="#000000" d="M 723 148 L 927 132" stroke-miterlimit="10"/></g><g transform="translate(2,-6) scale(1,1)"><path fill="none" stroke="#000000" d="M 917.1975868487375 136.99126200594168 L 927 132 L 916.53929197767 128.59800239983028" stroke-miterlimit="10"/></g><g transform="translate(2,-6) scale(1,1)"><path fill="none" stroke="#000000" d="M 388 271 L 623 171" stroke-miterlimit="10" stroke-dasharray="3"/></g><g transform="translate(2,-6) scale(1,1)"><path fill="none" stroke="#000000" d="M 615.2970260350984 178.85265509850313 L 623 171 L 612.0005092036439 171.10584054458528" stroke-miterlimit="10"/></g><g transform="translate(2,-6) scale(1,1)"><g><path fill="none" stroke="none"/><text fill="#000000" stroke="none" font-family="Arial" font-size="13px" font-style="normal" font-weight="normal" text-decoration="none" x="466" y="200">«include»</text></g></g><g transform="translate(2,-6) scale(1,1)"><path fill="none" stroke="#000000" d="M 427 271 L 659 219" stroke-miterlimit="10" stroke-dasharray="3"/></g><g transform="translate(2,-6) scale(1,1)"><path fill="none" stroke="#000000" d="M 650.0040375606656 225.33029697487282 L 659 219 L 648.1626980379899 217.11508987370442" stroke-miterlimit="10"/></g><g transform="translate(2,-6) scale(1,1)"><g><path fill="none" stroke="none"/><text fill="#000000" stroke="none" font-family="Arial" font-size="13px" font-style="normal" font-weight="normal" text-decoration="none" x="520" y="237">«include»</text></g></g><g transform="translate(2,-6) scale(1,1)"><path fill="none" stroke="#000000" d="M 454 285 L 639 277" stroke-miterlimit="10" stroke-dasharray="3"/></g><g transform="translate(2,-6) scale(1,1)"><path fill="none" stroke="#000000" d="M 629.0286770659072 281.64464411381914 L 639 277 L 628.6649505868223 273.23346928498177" stroke-miterlimit="10"/></g><g transform="translate(2,-6) scale(1,1)"><g><path fill="none" stroke="none"/><text fill="#000000" stroke="none" font-family="Arial" font-size="13px" font-style="normal" font-weight="normal" text-decoration="none" x="528" y="277">«include»</text></g></g><g transform="translate(2,-6) scale(1,1)"><path fill="none" stroke="#000000" d="M 512 499 L 518 599" stroke-miterlimit="10" stroke-dasharray="3"/></g><g transform="translate(2,-6) scale(1,1)"><path fill="none" stroke="#000000" d="M 513.1893731017242 589.107686375494 L 518 599 L 521.593295143983 588.6034510529586" stroke-miterlimit="10"/></g><g transform="translate(2,-6) scale(1,1)"><g><path fill="none" stroke="none"/><text fill="#000000" stroke="none" font-family="Arial" font-size="13px" font-style="normal" font-weight="normal" text-decoration="none" x="517" y="554">«include»</text></g></g><g transform="translate(2,-6) scale(1,1)"><path fill="none" stroke="#000000" d="M 542 499 L 660 567" stroke-miterlimit="10" stroke-dasharray="3"/></g><g transform="translate(2,-6) scale(1,1)"><path fill="none" stroke="#000000" d="M 649.0929475563661 565.5730427505289 L 660 567 L 653.2965604019134 558.2785381067847" stroke-miterlimit="10"/></g><g transform="translate(2,-6) scale(1,1)"><g><path fill="none" stroke="none"/><text fill="#000000" stroke="none" font-family="Arial" font-size="13px" font-style="normal" font-weight="normal" text-decoration="none" x="588" y="514">«include»</text></g></g><g transform="translate(2,-6) scale(1,1)"><path fill="none" stroke="#000000" d="M 282 91 L 340 271" stroke-miterlimit="10" stroke-dasharray="3"/></g><g transform="translate(2,-6) scale(1,1)"><path fill="none" stroke="#000000" d="M 332.87651725782547 262.61811515099726 L 340 271 L 340.88982466319766 260.03604943148844" stroke-miterlimit="10"/></g><g transform="translate(2,-6) scale(1,1)"><g><path fill="none" stroke="none"/><text fill="#000000" stroke="none" font-family="Arial" font-size="13px" font-style="normal" font-weight="normal" text-decoration="none" x="312" y="178">«include»</text></g></g></g></svg>