<svg version="1.1" xmlns="http://www.w3.org/2000/svg" xmlns:xlink="http://www.w3.org/1999/xlink" width="1047.11181640625" height="579"><defs/><g><g transform="translate(-62,-6) scale(1,1)"><rect fill="#C0C0C0" stroke="none" x="223" y="23" width="711" height="559" opacity="0.2"/></g><g transform="translate(-62,-6) scale(1,1)"><rect fill="#ffffff" stroke="none" x="216" y="16" width="711" height="559"/></g><g transform="translate(-62,-6) scale(1,1)"><path fill="none" stroke="#000000" d="M 216 16 L 927 16 L 927 575 L 216 575 L 216 16 Z Z" stroke-miterlimit="10"/></g><g transform="translate(-62,-6) scale(1,1)"><g><path fill="none" stroke="none"/><text fill="#000000" stroke="none" font-family="Arial" font-size="13px" font-style="normal" font-weight="bold" text-decoration="none" x="537.5400390625" y="35.5">Use Case 2</text></g></g><g transform="translate(-62,-6) scale(1,1)"><rect fill="#C0C0C0" stroke="none" x="239" y="47" width="367" height="471" opacity="0.2"/></g><g transform="translate(-62,-6) scale(1,1)"><rect fill="#ffffff" stroke="none" x="232" y="40" width="367" height="471"/></g><g transform="translate(-62,-6) scale(1,1)"><path fill="none" stroke="#000000" d="M 232 40 L 599 40 L 599 511 L 232 511 L 232 40 Z Z" stroke-miterlimit="10"/></g><g transform="translate(-62,-6) scale(1,1)"><g><path fill="none" stroke="none"/><text fill="#000000" stroke="none" font-family="Arial" font-size="13px" font-style="normal" font-weight="bold" text-decoration="none" x="363.471435546875" y="59.5">UseCaseSubject1</text></g></g><g transform="translate(-62,-6) scale(1,1)"><rect fill="#C0C0C0" stroke="none" x="647" y="279" width="263" height="287" opacity="0.2"/></g><g transform="translate(-62,-6) scale(1,1)"><rect fill="#ffffff" stroke="none" x="640" y="272" width="263" height="287"/></g><g transform="translate(-62,-6) scale(1,1)"><path fill="none" stroke="#000000" d="M 640 272 L 903 272 L 903 559 L 640 559 L 640 272 Z Z" stroke-miterlimit="10"/></g><g transform="translate(-62,-6) scale(1,1)"><g><path fill="none" stroke="none"/><text fill="#000000" stroke="none" font-family="Arial" font-size="13px" font-style="normal" font-weight="bold" text-decoration="none" x="719.471435546875" y="291.5">UseCaseSubject2</text></g></g><g transform="translate(-62,-6) scale(1,1)"><path fill="#ffffff" stroke="none" d="M 121.27751438210228 185.68 C 121.27751438210228 180.886167936 125.16335670704774 177 129.956787109375 177 C 134.75021751170226 177 138.63605983664772 180.886167936 138.63605983664772 185.68 C 138.63605983664772 190.47383206400002 134.75021751170226 194.36 129.956787109375 194.36 C 125.16335670704774 194.36 121.27751438210228 190.47383206400002 121.27751438210228 185.68 Z"/></g><g transform="translate(-62,-6) scale(1,1)"><path fill="none" stroke="#000000" d="M 121.27751438210228 185.68 C 121.27751438210228 180.886167936 125.16335670704774 177 129.956787109375 177 C 134.75021751170226 177 138.63605983664772 180.886167936 138.63605983664772 185.68 C 138.63605983664772 190.47383206400002 134.75021751170226 194.36 129.956787109375 194.36 C 125.16335670704774 194.36 121.27751438210228 190.47383206400002 121.27751438210228 185.68 Z" stroke-miterlimit="10"/></g><g transform="translate(-62,-6) scale(1,1)"><path fill="none" stroke="#000000" d="M 129.956787109375 194.36 L 129.956787109375 211.64" stroke-miterlimit="10"/></g><g transform="translate(-62,-6) scale(1,1)"><path fill="none" stroke="#000000" d="M 120.76696892755683 200.84 L 139.14660529119317 200.84" stroke-miterlimit="10"/></g><g transform="translate(-62,-6) scale(1,1)"><path fill="none" stroke="#000000" d="M 129.956787109375 211.64 L 117.19315074573865 229" stroke-miterlimit="10"/></g><g transform="translate(-62,-6) scale(1,1)"><path fill="none" stroke="#000000" d="M 129.956787109375 211.64 L 142.72042347301135 229" stroke-miterlimit="10"/></g><g transform="translate(-62,-6) scale(1,1)"><g><path fill="none" stroke="none"/><text fill="#000000" stroke="none" font-family="Arial" font-size="13px" font-style="normal" font-weight="bold" text-decoration="none" x="80.09912109375" y="249.5">Registered Client</text></g></g><g transform="translate(-62,-6) scale(1,1)"><path fill="#C0C0C0" stroke="none" d="M 231 160 C 231 150.6111584 278.6816688 143 337.5 143 C 396.3183312 143 444 150.6111584 444 160 C 444 169.3888416 396.3183312 177 337.5 177 C 278.6816688 177 231 169.3888416 231 160 Z" opacity="0.2"/></g><g transform="translate(-62,-6) scale(1,1)"><path fill="#ffffff" stroke="none" d="M 224 153 C 224 143.6111584 271.6816688 136 330.5 136 C 389.3183312 136 437 143.6111584 437 153 C 437 162.3888416 389.3183312 170 330.5 170 C 271.6816688 170 224 162.3888416 224 153 Z"/></g><g transform="translate(-62,-6) scale(1,1)"><path fill="none" stroke="#000000" d="M 224 153 C 224 143.6111584 271.6816688 136 330.5 136 C 389.3183312 136 437 143.6111584 437 153 C 437 162.3888416 389.3183312 170 330.5 170 C 271.6816688 170 224 162.3888416 224 153 Z" stroke-miterlimit="10"/></g><g transform="translate(-62,-6) scale(1,1)"><g><path fill="none" stroke="none"/><text fill="#000000" stroke="none" font-family="Arial" font-size="13px" font-style="normal" font-weight="bold" text-decoration="none" x="265.103271484375" y="160">Registered Client login</text></g></g><g transform="translate(-62,-6) scale(1,1)"><path fill="none" stroke="#000000" d="M 189 197 L 272 171" stroke-miterlimit="10"/></g><g transform="translate(-62,-6) scale(1,1)"><path fill="none" stroke="#000000" d="M 263.56036101315726 178.05496235083956 L 272 171 L 261.0436623223427 170.02088576093155" stroke-miterlimit="10"/></g><g transform="translate(-62,-6) scale(1,1)"><path fill="#C0C0C0" stroke="none" d="M 399 216 C 399 206.6111584 441.0852288 199 493 199 C 544.9147712 199 587 206.6111584 587 216 C 587 225.3888416 544.9147712 233 493 233 C 441.0852288 233 399 225.3888416 399 216 Z" opacity="0.2"/></g><g transform="translate(-62,-6) scale(1,1)"><path fill="#ffffff" stroke="none" d="M 392 209 C 392 199.6111584 434.0852288 192 486 192 C 537.9147712 192 580 199.6111584 580 209 C 580 218.3888416 537.9147712 226 486 226 C 434.0852288 226 392 218.3888416 392 209 Z"/></g><g transform="translate(-62,-6) scale(1,1)"><path fill="none" stroke="#000000" d="M 392 209 C 392 199.6111584 434.0852288 192 486 192 C 537.9147712 192 580 199.6111584 580 209 C 580 218.3888416 537.9147712 226 486 226 C 434.0852288 226 392 218.3888416 392 209 Z" stroke-miterlimit="10"/></g><g transform="translate(-62,-6) scale(1,1)"><g><path fill="none" stroke="none"/><text fill="#000000" stroke="none" font-family="Arial" font-size="13px" font-style="normal" font-weight="bold" text-decoration="none" x="445.5400390625" y="216">Reserve a car</text></g></g><g transform="translate(-62,-6) scale(1,1)"><path fill="#C0C0C0" stroke="none" d="M 279 64 C 279 54.6111584 337.8745488 47 410.5 47 C 483.1254512 47 542 54.6111584 542 64 C 542 73.3888416 483.1254512 81 410.5 81 C 337.8745488 81 279 73.3888416 279 64 Z" opacity="0.2"/></g><g transform="translate(-62,-6) scale(1,1)"><path fill="#ffffff" stroke="none" d="M 272 57 C 272 47.6111584 330.8745488 40 403.5 40 C 476.1254512 40 535 47.6111584 535 57 C 535 66.3888416 476.1254512 74 403.5 74 C 330.8745488 74 272 66.3888416 272 57 Z"/></g><g transform="translate(-62,-6) scale(1,1)"><path fill="none" stroke="#000000" d="M 272 57 C 272 47.6111584 330.8745488 40 403.5 40 C 476.1254512 40 535 47.6111584 535 57 C 535 66.3888416 476.1254512 74 403.5 74 C 330.8745488 74 272 66.3888416 272 57 Z" stroke-miterlimit="10"/></g><g transform="translate(-62,-6) scale(1,1)"><g><path fill="none" stroke="none"/><text fill="#000000" stroke="none" font-family="Arial" font-size="13px" font-style="normal" font-weight="bold" text-decoration="none" x="321.478759765625" y="64">Manage account information</text></g></g><g transform="translate(-62,-6) scale(1,1)"><path fill="#C0C0C0" stroke="none" d="M 239 288 C 239 278.6111584 280.8613712 271 332.5 271 C 384.1386288 271 426 278.6111584 426 288 C 426 297.3888416 384.1386288 305 332.5 305 C 280.8613712 305 239 297.3888416 239 288 Z" opacity="0.2"/></g><g transform="translate(-62,-6) scale(1,1)"><path fill="#ffffff" stroke="none" d="M 232 281 C 232 271.6111584 273.8613712 264 325.5 264 C 377.1386288 264 419 271.6111584 419 281 C 419 290.3888416 377.1386288 298 325.5 298 C 273.8613712 298 232 290.3888416 232 281 Z"/></g><g transform="translate(-62,-6) scale(1,1)"><path fill="none" stroke="#000000" d="M 232 281 C 232 271.6111584 273.8613712 264 325.5 264 C 377.1386288 264 419 271.6111584 419 281 C 419 290.3888416 377.1386288 298 325.5 298 C 273.8613712 298 232 290.3888416 232 281 Z" stroke-miterlimit="10"/></g><g transform="translate(-62,-6) scale(1,1)"><g><path fill="none" stroke="none"/><text fill="#000000" stroke="none" font-family="Arial" font-size="13px" font-style="normal" font-weight="bold" text-decoration="none" x="267.330078125" y="288">Delete a reservation</text></g></g><g transform="translate(-62,-6) scale(1,1)"><path fill="none" stroke="#000000" d="M 365 263 L 446 227" stroke-miterlimit="10" stroke-dasharray="3"/></g><g transform="translate(-62,-6) scale(1,1)"><path fill="none" stroke="#000000" d="M 438.4228774344834 234.97415911724485 L 446 227 L 435.0035832659772 227.280747238106" stroke-miterlimit="10"/></g><g transform="translate(-62,-6) scale(1,1)"><path fill="#C0C0C0" stroke="none" d="M 495 352 C 495 342.6111584 518.9527632 335 548.5 335 C 578.0472368 335 602 342.6111584 602 352 C 602 361.3888416 578.0472368 369 548.5 369 C 518.9527632 369 495 361.3888416 495 352 Z" opacity="0.2"/></g><g transform="translate(-62,-6) scale(1,1)"><path fill="#ffffff" stroke="none" d="M 488 345 C 488 335.6111584 511.9527632 328 541.5 328 C 571.0472368 328 595 335.6111584 595 345 C 595 354.3888416 571.0472368 362 541.5 362 C 511.9527632 362 488 354.3888416 488 345 Z"/></g><g transform="translate(-62,-6) scale(1,1)"><path fill="none" stroke="#000000" d="M 488 345 C 488 335.6111584 511.9527632 328 541.5 328 C 571.0472368 328 595 335.6111584 595 345 C 595 354.3888416 571.0472368 362 541.5 362 C 511.9527632 362 488 354.3888416 488 345 Z" stroke-miterlimit="10"/></g><g transform="translate(-62,-6) scale(1,1)"><g><path fill="none" stroke="none"/><text fill="#000000" stroke="none" font-family="Arial" font-size="13px" font-style="normal" font-weight="bold" text-decoration="none" x="510.79638671875" y="352">Unlock car</text></g></g><g transform="translate(-62,-6) scale(1,1)"><path fill="none" stroke="#000000" d="M 380 171 L 436 191" stroke-miterlimit="10" stroke-dasharray="3"/></g><g transform="translate(-62,-6) scale(1,1)"><path fill="none" stroke="#000000" d="M 425.01356911750605 191.54620185296585 L 436 191 L 427.8451971878224 183.61764325608004" stroke-miterlimit="10"/></g><g transform="translate(-62,-6) scale(1,1)"><g><path fill="none" stroke="none"/><text fill="#000000" stroke="none" font-family="Arial" font-size="13px" font-style="normal" font-weight="normal" text-decoration="none" x="396" y="170">«include»</text></g></g><g transform="translate(-62,-6) scale(1,1)"><path fill="none" stroke="#000000" d="M 344 135 L 389 75" stroke-miterlimit="10" stroke-dasharray="3"/></g><g transform="translate(-62,-6) scale(1,1)"><path fill="none" stroke="#000000" d="M 386.2700092902383 85.65585053970892 L 389 75 L 379.53478088061274 80.60442923248974" stroke-miterlimit="10"/></g><g transform="translate(-62,-6) scale(1,1)"><g><path fill="none" stroke="none"/><text fill="#000000" stroke="none" font-family="Arial" font-size="13px" font-style="normal" font-weight="normal" text-decoration="none" x="315" y="93">«include»</text></g></g><g transform="translate(-62,-6) scale(1,1)"><path fill="none" stroke="#000000" d="M 493 227 L 534 327" stroke-miterlimit="10" stroke-dasharray="3"/></g><g transform="translate(-62,-6) scale(1,1)"><path fill="none" stroke="#000000" d="M 526.2498916238852 319.1938600987123 L 534 327 L 534.03962027141 316.00007135322716" stroke-miterlimit="10"/></g><g transform="translate(-62,-6) scale(1,1)"><g><path fill="none" stroke="none"/><text fill="#000000" stroke="none" font-family="Arial" font-size="13px" font-style="normal" font-weight="normal" text-decoration="none" x="510" y="282">«include»</text></g></g><g transform="translate(-62,-6) scale(1,1)"><path fill="#C0C0C0" stroke="none" d="M 679 296 C 679 286.6111584 717.7273648 279 765.5 279 C 813.2726352 279 852 286.6111584 852 296 C 852 305.3888416 813.2726352 313 765.5 313 C 717.7273648 313 679 305.3888416 679 296 Z" opacity="0.2"/></g><g transform="translate(-62,-6) scale(1,1)"><path fill="#ffffff" stroke="none" d="M 672 289 C 672 279.6111584 710.7273648 272 758.5 272 C 806.2726352 272 845 279.6111584 845 289 C 845 298.3888416 806.2726352 306 758.5 306 C 710.7273648 306 672 298.3888416 672 289 Z"/></g><g transform="translate(-62,-6) scale(1,1)"><path fill="none" stroke="#000000" d="M 672 289 C 672 279.6111584 710.7273648 272 758.5 272 C 806.2726352 272 845 279.6111584 845 289 C 845 298.3888416 806.2726352 306 758.5 306 C 710.7273648 306 672 298.3888416 672 289 Z" stroke-miterlimit="10"/></g><g transform="translate(-62,-6) scale(1,1)"><g><path fill="none" stroke="none"/><text fill="#000000" stroke="none" font-family="Arial" font-size="13px" font-style="normal" font-weight="bold" text-decoration="none" x="705.392333984375" y="296">Terminate the rent</text></g></g><g transform="translate(-62,-6) scale(1,1)"><path fill="none" stroke="#000000" d="M 596 331 L 688 307" stroke-miterlimit="10" stroke-dasharray="3"/></g><g transform="translate(-62,-6) scale(1,1)"><path fill="none" stroke="#000000" d="M 679.2289947320572 313.63848375683193 L 688 307 L 677.1038458159621 305.4920795784674" stroke-miterlimit="10"/></g><g transform="translate(-62,-6) scale(1,1)"><g><path fill="none" stroke="none"/><text fill="#000000" stroke="none" font-family="Arial" font-size="13px" font-style="normal" font-weight="normal" text-decoration="none" x="589" y="313">«include»</text></g></g><g transform="translate(-62,-6) scale(1,1)"><path fill="#C0C0C0" stroke="none" d="M 767 168 C 767 158.6111584 789.6096176 151 817.5 151 C 845.3903824 151 868 158.6111584 868 168 C 868 177.3888416 845.3903824 185 817.5 185 C 789.6096176 185 767 177.3888416 767 168 Z" opacity="0.2"/></g><g transform="translate(-62,-6) scale(1,1)"><path fill="#ffffff" stroke="none" d="M 760 161 C 760 151.6111584 782.6096176 144 810.5 144 C 838.3903824 144 861 151.6111584 861 161 C 861 170.3888416 838.3903824 178 810.5 178 C 782.6096176 178 760 170.3888416 760 161 Z"/></g><g transform="translate(-62,-6) scale(1,1)"><path fill="none" stroke="#000000" d="M 760 161 C 760 151.6111584 782.6096176 144 810.5 144 C 838.3903824 144 861 151.6111584 861 161 C 861 170.3888416 838.3903824 178 810.5 178 C 782.6096176 178 760 170.3888416 760 161 Z" stroke-miterlimit="10"/></g><g transform="translate(-62,-6) scale(1,1)"><g><path fill="none" stroke="none"/><text fill="#000000" stroke="none" font-family="Arial" font-size="13px" font-style="normal" font-weight="bold" text-decoration="none" x="784.84912109375" y="168">Payment</text></g></g><g transform="translate(-62,-6) scale(1,1)"><path fill="#ffffff" stroke="none" d="M 1015.8461178977273 105.68 C 1015.8461178977273 100.886167936 1019.7319602226727 97 1024.525390625 97 C 1029.3188210273272 97 1033.2046633522727 100.886167936 1033.2046633522727 105.68 C 1033.2046633522727 110.473832064 1029.3188210273272 114.36 1024.525390625 114.36 C 1019.7319602226727 114.36 1015.8461178977273 110.473832064 1015.8461178977273 105.68 Z"/></g><g transform="translate(-62,-6) scale(1,1)"><path fill="none" stroke="#000000" d="M 1015.8461178977273 105.68 C 1015.8461178977273 100.886167936 1019.7319602226727 97 1024.525390625 97 C 1029.3188210273272 97 1033.2046633522727 100.886167936 1033.2046633522727 105.68 C 1033.2046633522727 110.473832064 1029.3188210273272 114.36 1024.525390625 114.36 C 1019.7319602226727 114.36 1015.8461178977273 110.473832064 1015.8461178977273 105.68 Z" stroke-miterlimit="10"/></g><g transform="translate(-62,-6) scale(1,1)"><path fill="none" stroke="#000000" d="M 1024.525390625 114.36 L 1024.525390625 131.64" stroke-miterlimit="10"/></g><g transform="translate(-62,-6) scale(1,1)"><path fill="none" stroke="#000000" d="M 1015.3355724431818 120.84 L 1033.7152088068183 120.84" stroke-miterlimit="10"/></g><g transform="translate(-62,-6) scale(1,1)"><path fill="none" stroke="#000000" d="M 1024.525390625 131.64 L 1011.7617542613636 149" stroke-miterlimit="10"/></g><g transform="translate(-62,-6) scale(1,1)"><path fill="none" stroke="#000000" d="M 1024.525390625 131.64 L 1037.2890269886364 149" stroke-miterlimit="10"/></g><g transform="translate(-62,-6) scale(1,1)"><g><path fill="none" stroke="none"/><text fill="#000000" stroke="none" font-family="Arial" font-size="13px" font-style="normal" font-weight="normal" text-decoration="none" x="995.62451171875" y="167.5">«System»</text></g></g><g transform="translate(-62,-6) scale(1,1)"><g><path fill="none" stroke="none"/><text fill="#000000" stroke="none" font-family="Arial" font-size="13px" font-style="normal" font-weight="bold" text-decoration="none" x="975.397705078125" y="182.5">Payment System</text></g></g><g transform="translate(-62,-6) scale(1,1)"><path fill="none" stroke="#000000" d="M 862 156 L 967 147" stroke-miterlimit="10"/></g><g transform="translate(-62,-6) scale(1,1)"><path fill="none" stroke="#000000" d="M 957.2339505811872 152.0620429422621 L 967 147 L 956.5149553394235 143.67376512168556" stroke-miterlimit="10"/></g><g transform="translate(-62,-6) scale(1,1)"><path fill="#C0C0C0" stroke="none" d="M 719 384 C 719 374.6111584 744.5197664 367 776 367 C 807.4802336 367 833 374.6111584 833 384 C 833 393.3888416 807.4802336 401 776 401 C 744.5197664 401 719 393.3888416 719 384 Z" opacity="0.2"/></g><g transform="translate(-62,-6) scale(1,1)"><path fill="#ffffff" stroke="none" d="M 712 377 C 712 367.6111584 737.5197664 360 769 360 C 800.4802336 360 826 367.6111584 826 377 C 826 386.3888416 800.4802336 394 769 394 C 737.5197664 394 712 386.3888416 712 377 Z"/></g><g transform="translate(-62,-6) scale(1,1)"><path fill="none" stroke="#000000" d="M 712 377 C 712 367.6111584 737.5197664 360 769 360 C 800.4802336 360 826 367.6111584 826 377 C 826 386.3888416 800.4802336 394 769 394 C 737.5197664 394 712 386.3888416 712 377 Z" stroke-miterlimit="10"/></g><g transform="translate(-62,-6) scale(1,1)"><g><path fill="none" stroke="none"/><text fill="#000000" stroke="none" font-family="Arial" font-size="13px" font-style="normal" font-weight="bold" text-decoration="none" x="735.754150390625" y="384">Obtain help</text></g></g><g transform="translate(-62,-6) scale(1,1)"><path fill="none" stroke="#000000" d="M 596 353 L 711 369" stroke-miterlimit="10" stroke-dasharray="3"/></g><g transform="translate(-62,-6) scale(1,1)"><path fill="none" stroke="#000000" d="M 700.3541961385727 371.76890955865645 L 711 369 L 701.5143651729845 363.4301946238211" stroke-miterlimit="10"/></g><g transform="translate(-62,-6) scale(1,1)"><g><path fill="none" stroke="none"/><text fill="#000000" stroke="none" font-family="Arial" font-size="13px" font-style="normal" font-weight="normal" text-decoration="none" x="631" y="352">«include»</text></g></g><g transform="translate(-62,-6) scale(1,1)"><path fill="#ffffff" stroke="none" d="M 1028.8766354758523 321.68 C 1028.8766354758523 316.886167936 1032.7624778007978 313 1037.555908203125 313 C 1042.3493386054522 313 1046.2351809303977 316.886167936 1046.2351809303977 321.68 C 1046.2351809303977 326.473832064 1042.3493386054522 330.36 1037.555908203125 330.36 C 1032.7624778007978 330.36 1028.8766354758523 326.473832064 1028.8766354758523 321.68 Z"/></g><g transform="translate(-62,-6) scale(1,1)"><path fill="none" stroke="#000000" d="M 1028.8766354758523 321.68 C 1028.8766354758523 316.886167936 1032.7624778007978 313 1037.555908203125 313 C 1042.3493386054522 313 1046.2351809303977 316.886167936 1046.2351809303977 321.68 C 1046.2351809303977 326.473832064 1042.3493386054522 330.36 1037.555908203125 330.36 C 1032.7624778007978 330.36 1028.8766354758523 326.473832064 1028.8766354758523 321.68 Z" stroke-miterlimit="10"/></g><g transform="translate(-62,-6) scale(1,1)"><path fill="none" stroke="#000000" d="M 1037.555908203125 330.36 L 1037.555908203125 347.64" stroke-miterlimit="10"/></g><g transform="translate(-62,-6) scale(1,1)"><path fill="none" stroke="#000000" d="M 1028.3660900213067 336.84 L 1046.7457263849433 336.84" stroke-miterlimit="10"/></g><g transform="translate(-62,-6) scale(1,1)"><path fill="none" stroke="#000000" d="M 1037.555908203125 347.64 L 1024.7922718394886 365" stroke-miterlimit="10"/></g><g transform="translate(-62,-6) scale(1,1)"><path fill="none" stroke="#000000" d="M 1037.555908203125 347.64 L 1050.3195445667614 365" stroke-miterlimit="10"/></g><g transform="translate(-62,-6) scale(1,1)"><g><path fill="none" stroke="none"/><text fill="#000000" stroke="none" font-family="Arial" font-size="13px" font-style="normal" font-weight="normal" text-decoration="none" x="1008.655029296875" y="383.5">«System»</text></g></g><g transform="translate(-62,-6) scale(1,1)"><g><path fill="none" stroke="none"/><text fill="#000000" stroke="none" font-family="Arial" font-size="13px" font-style="normal" font-weight="bold" text-decoration="none" x="984.81005859375" y="398.5">Customer Support</text></g></g><g transform="translate(-62,-6) scale(1,1)"><path fill="none" stroke="#000000" d="M 827 373 L 975 362" stroke-miterlimit="10"/></g><g transform="translate(-62,-6) scale(1,1)"><path fill="none" stroke="#000000" d="M 965.1772881866797 366.9511950711377 L 975 362 L 964.5532702573812 358.55531747693885" stroke-miterlimit="10"/></g><g transform="translate(-62,-6) scale(1,1)"><path fill="#C0C0C0" stroke="none" d="M 663 432 C 663 422.6111584 718.0689696 415 786 415 C 853.9310304 415 909 422.6111584 909 432 C 909 441.3888416 853.9310304 449 786 449 C 718.0689696 449 663 441.3888416 663 432 Z" opacity="0.2"/></g><g transform="translate(-62,-6) scale(1,1)"><path fill="#ffffff" stroke="none" d="M 656 425 C 656 415.6111584 711.0689696 408 779 408 C 846.9310304 408 902 415.6111584 902 425 C 902 434.3888416 846.9310304 442 779 442 C 711.0689696 442 656 434.3888416 656 425 Z"/></g><g transform="translate(-62,-6) scale(1,1)"><path fill="none" stroke="#000000" d="M 656 425 C 656 415.6111584 711.0689696 408 779 408 C 846.9310304 408 902 415.6111584 902 425 C 902 434.3888416 846.9310304 442 779 442 C 711.0689696 442 656 434.3888416 656 425 Z" stroke-miterlimit="10"/></g><g transform="translate(-62,-6) scale(1,1)"><g><path fill="none" stroke="none"/><text fill="#000000" stroke="none" font-family="Arial" font-size="13px" font-style="normal" font-weight="bold" text-decoration="none" x="702.75830078125" y="432">Select destination address</text></g></g><g transform="translate(-62,-6) scale(1,1)"><path fill="none" stroke="#000000" d="M 595 363 L 725 407" stroke-miterlimit="10" stroke-dasharray="3"/></g><g transform="translate(-62,-6) scale(1,1)"><path fill="none" stroke="#000000" d="M 714.0241967929867 407.72920776251715 L 725 407 L 716.723307369582 399.75456287712154" stroke-miterlimit="10"/></g><g transform="translate(-62,-6) scale(1,1)"><g><path fill="none" stroke="none"/><text fill="#000000" stroke="none" font-family="Arial" font-size="13px" font-style="normal" font-weight="normal" text-decoration="none" x="626" y="406">«include»</text></g></g><g transform="translate(-62,-6) scale(1,1)"><path fill="#C0C0C0" stroke="none" d="M 695 528 C 695 518.6111584 737.9806592 511 791 511 C 844.0193408 511 887 518.6111584 887 528 C 887 537.3888416 844.0193408 545 791 545 C 737.9806592 545 695 537.3888416 695 528 Z" opacity="0.2"/></g><g transform="translate(-62,-6) scale(1,1)"><path fill="#ffffff" stroke="none" d="M 688 521 C 688 511.6111584 730.9806592 504 784 504 C 837.0193408 504 880 511.6111584 880 521 C 880 530.3888416 837.0193408 538 784 538 C 730.9806592 538 688 530.3888416 688 521 Z"/></g><g transform="translate(-62,-6) scale(1,1)"><path fill="none" stroke="#000000" d="M 688 521 C 688 511.6111584 730.9806592 504 784 504 C 837.0193408 504 880 511.6111584 880 521 C 880 530.3888416 837.0193408 538 784 538 C 730.9806592 538 688 530.3888416 688 521 Z" stroke-miterlimit="10"/></g><g transform="translate(-62,-6) scale(1,1)"><g><path fill="none" stroke="none"/><text fill="#000000" stroke="none" font-family="Arial" font-size="13px" font-style="normal" font-weight="bold" text-decoration="none" x="725.46826171875" y="528">Select travel options</text></g></g><g transform="translate(-62,-6) scale(1,1)"><path fill="none" stroke="#000000" d="M 566 363 L 759 503" stroke-miterlimit="10" stroke-dasharray="3"/></g><g transform="translate(-62,-6) scale(1,1)"><path fill="none" stroke="#000000" d="M 748.3019934467329 500.44018442339 L 759 503 L 753.2454299738146 493.6253040681989" stroke-miterlimit="10"/></g><g transform="translate(-62,-6) scale(1,1)"><g><path fill="none" stroke="none"/><text fill="#000000" stroke="none" font-family="Arial" font-size="13px" font-style="normal" font-weight="normal" text-decoration="none" x="588" y="427">«include»</text></g></g><g transform="translate(-62,-6) scale(1,1)"><path fill="#C0C0C0" stroke="none" d="M 311 448 C 311 438.6111584 367.4121152 431 437 431 C 506.5878848 431 563 438.6111584 563 448 C 563 457.3888416 506.5878848 465 437 465 C 367.4121152 465 311 457.3888416 311 448 Z" opacity="0.2"/></g><g transform="translate(-62,-6) scale(1,1)"><path fill="#ffffff" stroke="none" d="M 304 441 C 304 431.6111584 360.4121152 424 430 424 C 499.5878848 424 556 431.6111584 556 441 C 556 450.3888416 499.5878848 458 430 458 C 360.4121152 458 304 450.3888416 304 441 Z"/></g><g transform="translate(-62,-6) scale(1,1)"><path fill="none" stroke="#000000" d="M 304 441 C 304 431.6111584 360.4121152 424 430 424 C 499.5878848 424 556 431.6111584 556 441 C 556 450.3888416 499.5878848 458 430 458 C 360.4121152 458 304 450.3888416 304 441 Z" stroke-miterlimit="10"/></g><g transform="translate(-62,-6) scale(1,1)"><g><path fill="none" stroke="none"/><text fill="#000000" stroke="none" font-family="Arial" font-size="13px" font-style="normal" font-weight="bold" text-decoration="none" x="349.79736328125" y="448">Reserve a car through SMS</text></g></g><g transform="translate(-62,-6) scale(1,1)"><path fill="none" stroke="#000000" d="M 184 256 L 406 423" stroke-miterlimit="10"/></g><g transform="translate(-62,-6) scale(1,1)"><path fill="none" stroke="#000000" d="M 395.3480913745697 420.2546689388193 L 406 423 L 400.40920538834166 413.5267209684158" stroke-miterlimit="10"/></g><g transform="translate(-62,-6) scale(1,1)"><path fill="none" stroke="#000000" d="M 451 423 L 520 363" stroke-miterlimit="10" stroke-dasharray="3"/></g><g transform="translate(-62,-6) scale(1,1)"><path fill="none" stroke="#000000" d="M 515.0933853840802 372.84505627260927 L 520 363 L 509.56899348088893 366.49200558393926" stroke-miterlimit="10"/></g><g transform="translate(-62,-6) scale(1,1)"><g><path fill="none" stroke="none"/><text fill="#000000" stroke="none" font-family="Arial" font-size="13px" font-style="normal" font-weight="normal" text-decoration="none" x="467" y="403">«include»</text></g></g><g transform="translate(-62,-6) scale(1,1)"><path fill="none" stroke="#000000" d="M 434 423 L 482 227" stroke-miterlimit="10" stroke-dasharray="3"/></g><g transform="translate(-62,-6) scale(1,1)"><path fill="none" stroke="#000000" d="M 483.6713107242078 237.87229140812312 L 482 227 L 475.49392416483704 235.86966612827723" stroke-miterlimit="10"/></g><g transform="translate(-62,-6) scale(1,1)"><g><path fill="none" stroke="none"/><text fill="#000000" stroke="none" font-family="Arial" font-size="13px" font-style="normal" font-weight="normal" text-decoration="none" x="440" y="317">«extend»</text></g></g><g transform="translate(-62,-6) scale(1,1)"><path fill="#ffffff" stroke="none" d="M 624 72 L 695.5908203125 72 L 705.5908203125 82 L 705.5908203125 186 L 624 186 L 624 72"/></g><g transform="translate(-62,-6) scale(1,1)"><path fill="none" stroke="#000000" d="M 624 72 L 695.5908203125 72 L 705.5908203125 82 L 705.5908203125 186 L 624 186 L 624 72 L 624 72" stroke-miterlimit="10"/></g><g transform="translate(-62,-6) scale(1,1)"><path fill="none" stroke="#000000" d="M 695.5908203125 72 L 695.5908203125 82 L 705.5908203125 82 L 695.5908203125 72" stroke-miterlimit="10"/></g><g transform="translate(-62,-6) scale(1,1)"><g><path fill="none" stroke="none"/><text fill="#000000" stroke="none" font-family="Arial" font-size="13px" font-style="normal" font-weight="normal" text-decoration="none" x="629" y="90">Operations</text><text fill="#000000" stroke="none" font-family="Arial" font-size="13px" font-style="normal" font-weight="normal" text-decoration="none" x="629" y="103">done by</text><text fill="#000000" stroke="none" font-family="Arial" font-size="13px" font-style="normal" font-weight="normal" text-decoration="none" x="629" y="116">Registered</text><text fill="#000000" stroke="none" font-family="Arial" font-size="13px" font-style="normal" font-weight="normal" text-decoration="none" x="629" y="129">Client using</text><text fill="#000000" stroke="none" font-family="Arial" font-size="13px" font-style="normal" font-weight="normal" text-decoration="none" x="629" y="142">his/her own</text><text fill="#000000" stroke="none" font-family="Arial" font-size="13px" font-style="normal" font-weight="normal" text-decoration="none" x="629" y="155">device.</text></g></g><g transform="translate(-62,-6) scale(1,1)"><path fill="none" stroke="#000000" d="M 600 167 L 623 154" stroke-miterlimit="10" stroke-dasharray="3"/></g><g transform="translate(-62,-6) scale(1,1)"><path fill="#ffffff" stroke="none" d="M 960 192 L 1031.5908203125 192 L 1041.5908203125 202 L 1041.5908203125 293 L 960 293 L 960 192"/></g><g transform="translate(-62,-6) scale(1,1)"><path fill="none" stroke="#000000" d="M 960 192 L 1031.5908203125 192 L 1041.5908203125 202 L 1041.5908203125 293 L 960 293 L 960 192 L 960 192" stroke-miterlimit="10"/></g><g transform="translate(-62,-6) scale(1,1)"><path fill="none" stroke="#000000" d="M 1031.5908203125 192 L 1031.5908203125 202 L 1041.5908203125 202 L 1031.5908203125 192" stroke-miterlimit="10"/></g><g transform="translate(-62,-6) scale(1,1)"><g><path fill="none" stroke="none"/><text fill="#000000" stroke="none" font-family="Arial" font-size="13px" font-style="normal" font-weight="normal" text-decoration="none" x="965" y="210">Operations</text><text fill="#000000" stroke="none" font-family="Arial" font-size="13px" font-style="normal" font-weight="normal" text-decoration="none" x="965" y="223">done by</text><text fill="#000000" stroke="none" font-family="Arial" font-size="13px" font-style="normal" font-weight="normal" text-decoration="none" x="965" y="236">Registered</text><text fill="#000000" stroke="none" font-family="Arial" font-size="13px" font-style="normal" font-weight="normal" text-decoration="none" x="965" y="249">Client using</text><text fill="#000000" stroke="none" font-family="Arial" font-size="13px" font-style="normal" font-weight="normal" text-decoration="none" x="965" y="262">GPS</text><text fill="#000000" stroke="none" font-family="Arial" font-size="13px" font-style="normal" font-weight="normal" text-decoration="none" x="965" y="275">navigation</text><text fill="#000000" stroke="none" font-family="Arial" font-size="13px" font-style="normal" font-weight="normal" text-decoration="none" x="965" y="288">device.</text></g></g><g transform="translate(-62,-6) scale(1,1)"><path fill="none" stroke="#000000" d="M 904 316 L 959 274" stroke-miterlimit="10" stroke-dasharray="3"/></g><g transform="translate(-62,-6) scale(1,1)"><path fill="none" stroke="#000000" d="M 803 179 L 765 271" stroke-miterlimit="10" stroke-dasharray="3"/></g><g transform="translate(-62,-6) scale(1,1)"><path fill="none" stroke="#000000" d="M 764.9890094369543 260.00000549056847 L 765 271 L 772.7703992089752 263.21405778770753" stroke-miterlimit="10"/></g></g></svg>