<svg version="1.1" xmlns="http://www.w3.org/2000/svg" xmlns:xlink="http://www.w3.org/1999/xlink" width="848" height="612"><defs/><g><g transform="translate(-46,-150) scale(1,1)"><rect fill="#C0C0C0" stroke="none" x="63" y="191" width="156" height="88" opacity="0.2"/></g><g transform="translate(-46,-150) scale(1,1)"><rect fill="#ffffff" stroke="none" x="56" y="184" width="156" height="88"/></g><g transform="translate(-46,-150) scale(1,1)"><path fill="none" stroke="#000000" d="M 56 184 L 212 184 L 212 272 L 56 272 L 56 184 Z Z" stroke-miterlimit="10"/></g><g transform="translate(-46,-150) scale(1,1)"><path fill="none" stroke="#000000" d="M 56 222 L 212 222" stroke-miterlimit="10"/></g><g transform="translate(-46,-150) scale(1,1)"><path fill="none" stroke="#000000" d="M 56 260 L 212 260" stroke-miterlimit="10"/></g><g transform="translate(-46,-150) scale(1,1)"><g><path fill="none" stroke="none"/><text fill="#000000" stroke="none" font-family="Arial" font-size="13px" font-style="normal" font-weight="normal" text-decoration="none" x="111" y="201.5">«entity»</text></g></g><g transform="translate(-46,-150) scale(1,1)"><g><path fill="none" stroke="none"/><text fill="#000000" stroke="none" font-family="Arial" font-size="13px" font-style="normal" font-weight="bold" text-decoration="none" x="100" y="216.5">Transaction</text></g></g><g transform="translate(-46,-150) scale(1,1)"><g><path fill="none" stroke="none"/><text fill="#000000" stroke="none" font-family="Arial" font-size="13px" font-style="normal" font-weight="normal" text-decoration="none" x="61" y="239.5">-amount: int</text></g></g><g transform="translate(-46,-150) scale(1,1)"><g><path fill="none" stroke="none"/><text fill="#000000" stroke="none" font-family="Arial" font-size="13px" font-style="normal" font-weight="normal" text-decoration="none" x="61" y="254.5">-timestamp: Timestamp</text></g></g><g transform="translate(-46,-150) scale(1,1)"><rect fill="#C0C0C0" stroke="none" x="391" y="167" width="156" height="130" opacity="0.2"/></g><g transform="translate(-46,-150) scale(1,1)"><rect fill="#ffffff" stroke="none" x="384" y="160" width="156" height="130"/></g><g transform="translate(-46,-150) scale(1,1)"><path fill="none" stroke="#000000" d="M 384 160 L 540 160 L 540 290 L 384 290 L 384 160 Z Z" stroke-miterlimit="10"/></g><g transform="translate(-46,-150) scale(1,1)"><path fill="none" stroke="#000000" d="M 384 198 L 540 198" stroke-miterlimit="10"/></g><g transform="translate(-46,-150) scale(1,1)"><path fill="none" stroke="#000000" d="M 384 266 L 540 266" stroke-miterlimit="10"/></g><g transform="translate(-46,-150) scale(1,1)"><g><path fill="none" stroke="none"/><text fill="#000000" stroke="none" font-family="Arial" font-size="13px" font-style="normal" font-weight="normal" text-decoration="none" x="439" y="177.5">«entity»</text></g></g><g transform="translate(-46,-150) scale(1,1)"><g><path fill="none" stroke="none"/><text fill="#000000" stroke="none" font-family="Arial" font-size="13px" font-style="normal" font-weight="bold" text-decoration="none" x="448.5" y="192.5">Rent</text></g></g><g transform="translate(-46,-150) scale(1,1)"><g><path fill="none" stroke="none"/><text fill="#000000" stroke="none" font-family="Arial" font-size="13px" font-style="normal" font-weight="normal" text-decoration="none" x="389" y="215.5">-finished: Boolean</text></g></g><g transform="translate(-46,-150) scale(1,1)"><g><path fill="none" stroke="none"/><text fill="#000000" stroke="none" font-family="Arial" font-size="13px" font-style="normal" font-weight="normal" text-decoration="none" x="389" y="230.5">-startTime: Timestamp</text></g></g><g transform="translate(-46,-150) scale(1,1)"><g><path fill="none" stroke="none"/><text fill="#000000" stroke="none" font-family="Arial" font-size="13px" font-style="normal" font-weight="normal" text-decoration="none" x="389" y="245.5">-endTime: Timestamp</text></g></g><g transform="translate(-46,-150) scale(1,1)"><g><path fill="none" stroke="none"/><text fill="#000000" stroke="none" font-family="Arial" font-size="13px" font-style="normal" font-weight="normal" text-decoration="none" x="389" y="260.5">-costForMinute: int</text></g></g><g transform="translate(-46,-150) scale(1,1)"><rect fill="#C0C0C0" stroke="none" x="735" y="175" width="156" height="112" opacity="0.2"/></g><g transform="translate(-46,-150) scale(1,1)"><rect fill="#ffffff" stroke="none" x="728" y="168" width="156" height="112"/></g><g transform="translate(-46,-150) scale(1,1)"><path fill="none" stroke="#000000" d="M 728 168 L 884 168 L 884 280 L 728 280 L 728 168 Z Z" stroke-miterlimit="10"/></g><g transform="translate(-46,-150) scale(1,1)"><path fill="none" stroke="#000000" d="M 728 206 L 884 206" stroke-miterlimit="10"/></g><g transform="translate(-46,-150) scale(1,1)"><path fill="none" stroke="#000000" d="M 728 259 L 884 259" stroke-miterlimit="10"/></g><g transform="translate(-46,-150) scale(1,1)"><g><path fill="none" stroke="none"/><text fill="#000000" stroke="none" font-family="Arial" font-size="13px" font-style="normal" font-weight="normal" text-decoration="none" x="783" y="185.5">«entity»</text></g></g><g transform="translate(-46,-150) scale(1,1)"><g><path fill="none" stroke="none"/><text fill="#000000" stroke="none" font-family="Arial" font-size="13px" font-style="normal" font-weight="bold" text-decoration="none" x="782" y="200.5">Request</text></g></g><g transform="translate(-46,-150) scale(1,1)"><g><path fill="none" stroke="none"/><text fill="#000000" stroke="none" font-family="Arial" font-size="13px" font-style="normal" font-weight="normal" text-decoration="none" x="733" y="223.5">-valid: boolean</text></g></g><g transform="translate(-46,-150) scale(1,1)"><g><path fill="none" stroke="none"/><text fill="#000000" stroke="none" font-family="Arial" font-size="13px" font-style="normal" font-weight="normal" text-decoration="none" x="733" y="238.5">-expired: Boolean</text></g></g><g transform="translate(-46,-150) scale(1,1)"><g><path fill="none" stroke="none"/><text fill="#000000" stroke="none" font-family="Arial" font-size="13px" font-style="normal" font-weight="normal" text-decoration="none" x="733" y="253.5">-startTime: Timestamp</text></g></g><g transform="translate(-46,-150) scale(1,1)"><rect fill="#C0C0C0" stroke="none" x="735" y="423" width="156" height="115" opacity="0.2"/></g><g transform="translate(-46,-150) scale(1,1)"><rect fill="#ffffff" stroke="none" x="728" y="416" width="156" height="115"/></g><g transform="translate(-46,-150) scale(1,1)"><path fill="none" stroke="#000000" d="M 728 416 L 884 416 L 884 531 L 728 531 L 728 416 Z Z" stroke-miterlimit="10"/></g><g transform="translate(-46,-150) scale(1,1)"><path fill="none" stroke="#000000" d="M 728 454 L 884 454" stroke-miterlimit="10"/></g><g transform="translate(-46,-150) scale(1,1)"><path fill="none" stroke="#000000" d="M 728 492 L 884 492" stroke-miterlimit="10"/></g><g transform="translate(-46,-150) scale(1,1)"><g><path fill="none" stroke="none"/><text fill="#000000" stroke="none" font-family="Arial" font-size="13px" font-style="normal" font-weight="normal" text-decoration="none" x="783" y="433.5">«entity»</text></g></g><g transform="translate(-46,-150) scale(1,1)"><g><path fill="none" stroke="none"/><text fill="#000000" stroke="none" font-family="Arial" font-size="13px" font-style="normal" font-weight="bold" text-decoration="none" x="792.5" y="448.5">User</text></g></g><g transform="translate(-46,-150) scale(1,1)"><g><path fill="none" stroke="none"/><text fill="#000000" stroke="none" font-family="Arial" font-size="13px" font-style="normal" font-weight="normal" text-decoration="none" x="733" y="471.5">-email: String</text></g></g><g transform="translate(-46,-150) scale(1,1)"><g><path fill="none" stroke="none"/><text fill="#000000" stroke="none" font-family="Arial" font-size="13px" font-style="normal" font-weight="normal" text-decoration="none" x="733" y="486.5">-password: String</text></g></g><g transform="translate(-46,-150) scale(1,1)"><rect fill="#C0C0C0" stroke="none" x="391" y="639" width="156" height="70" opacity="0.2"/></g><g transform="translate(-46,-150) scale(1,1)"><rect fill="#ffffff" stroke="none" x="384" y="632" width="156" height="70"/></g><g transform="translate(-46,-150) scale(1,1)"><path fill="none" stroke="#000000" d="M 384 632 L 540 632 L 540 702 L 384 702 L 384 632 Z Z" stroke-miterlimit="10"/></g><g transform="translate(-46,-150) scale(1,1)"><path fill="none" stroke="#000000" d="M 384 670 L 540 670" stroke-miterlimit="10"/></g><g transform="translate(-46,-150) scale(1,1)"><path fill="none" stroke="#000000" d="M 384 680 L 540 680" stroke-miterlimit="10"/></g><g transform="translate(-46,-150) scale(1,1)"><g><path fill="none" stroke="none"/><text fill="#000000" stroke="none" font-family="Arial" font-size="13px" font-style="normal" font-weight="normal" text-decoration="none" x="439" y="649.5">«entity»</text></g></g><g transform="translate(-46,-150) scale(1,1)"><g><path fill="none" stroke="none"/><text fill="#000000" stroke="none" font-family="Arial" font-size="13px" font-style="normal" font-weight="bold" text-decoration="none" x="435" y="664.5">SafeArea</text></g></g><g transform="translate(-46,-150) scale(1,1)"><rect fill="#C0C0C0" stroke="none" x="391" y="439" width="156" height="72" opacity="0.2"/></g><g transform="translate(-46,-150) scale(1,1)"><rect fill="#ffffff" stroke="none" x="384" y="432" width="156" height="72"/></g><g transform="translate(-46,-150) scale(1,1)"><path fill="none" stroke="#000000" d="M 384 432 L 540 432 L 540 504 L 384 504 L 384 432 Z Z" stroke-miterlimit="10"/></g><g transform="translate(-46,-150) scale(1,1)"><path fill="none" stroke="#000000" d="M 384 470 L 540 470" stroke-miterlimit="10"/></g><g transform="translate(-46,-150) scale(1,1)"><path fill="none" stroke="#000000" d="M 384 493 L 540 493" stroke-miterlimit="10"/></g><g transform="translate(-46,-150) scale(1,1)"><g><path fill="none" stroke="none"/><text fill="#000000" stroke="none" font-family="Arial" font-size="13px" font-style="normal" font-weight="normal" text-decoration="none" x="439" y="449.5">«entity»</text></g></g><g transform="translate(-46,-150) scale(1,1)"><g><path fill="none" stroke="none"/><text fill="#000000" stroke="none" font-family="Arial" font-size="13px" font-style="normal" font-weight="bold" text-decoration="none" x="452" y="464.5">Car</text></g></g><g transform="translate(-46,-150) scale(1,1)"><g><path fill="none" stroke="none"/><text fill="#000000" stroke="none" font-family="Arial" font-size="13px" font-style="normal" font-weight="normal" text-decoration="none" x="389" y="487.5">-plate: String</text></g></g><g transform="translate(-46,-150) scale(1,1)"><rect fill="#C0C0C0" stroke="none" x="71" y="447" width="156" height="70" opacity="0.2"/></g><g transform="translate(-46,-150) scale(1,1)"><rect fill="#ffffff" stroke="none" x="64" y="440" width="156" height="70"/></g><g transform="translate(-46,-150) scale(1,1)"><path fill="none" stroke="#000000" d="M 64 440 L 220 440 L 220 510 L 64 510 L 64 440 Z Z" stroke-miterlimit="10"/></g><g transform="translate(-46,-150) scale(1,1)"><path fill="none" stroke="#000000" d="M 64 465 L 220 465" stroke-miterlimit="10"/></g><g transform="translate(-46,-150) scale(1,1)"><path fill="none" stroke="#000000" d="M 64 488 L 220 488" stroke-miterlimit="10"/></g><g transform="translate(-46,-150) scale(1,1)"><g><path fill="none" stroke="none"/><text fill="#000000" stroke="none" font-family="Arial" font-size="13px" font-style="italic" font-weight="bold" text-decoration="none" x="94.5" y="459.5">PaymentMethod</text></g></g><g transform="translate(-46,-150) scale(1,1)"><g><path fill="none" stroke="none"/><text fill="#000000" stroke="none" font-family="Arial" font-size="13px" font-style="normal" font-weight="normal" text-decoration="none" x="69" y="482.5">#valid: Boolean</text></g></g><g transform="translate(-46,-150) scale(1,1)"><rect fill="#C0C0C0" stroke="none" x="71" y="639" width="156" height="70" opacity="0.2"/></g><g transform="translate(-46,-150) scale(1,1)"><rect fill="#ffffff" stroke="none" x="64" y="632" width="156" height="70"/></g><g transform="translate(-46,-150) scale(1,1)"><path fill="none" stroke="#000000" d="M 64 632 L 220 632 L 220 702 L 64 702 L 64 632 Z Z" stroke-miterlimit="10"/></g><g transform="translate(-46,-150) scale(1,1)"><path fill="none" stroke="#000000" d="M 64 670 L 220 670" stroke-miterlimit="10"/></g><g transform="translate(-46,-150) scale(1,1)"><path fill="none" stroke="#000000" d="M 64 693 L 220 693" stroke-miterlimit="10"/></g><g transform="translate(-46,-150) scale(1,1)"><g><path fill="none" stroke="none"/><text fill="#000000" stroke="none" font-family="Arial" font-size="13px" font-style="normal" font-weight="normal" text-decoration="none" x="119" y="649.5">«entity»</text></g></g><g transform="translate(-46,-150) scale(1,1)"><g><path fill="none" stroke="none"/><text fill="#000000" stroke="none" font-family="Arial" font-size="13px" font-style="normal" font-weight="bold" text-decoration="none" x="111.5" y="664.5">CreditCard</text></g></g><g transform="translate(-46,-150) scale(1,1)"><g><path fill="none" stroke="none"/><text fill="#000000" stroke="none" font-family="Arial" font-size="13px" font-style="normal" font-weight="normal" text-decoration="none" x="69" y="687.5">-expDate: Timestamp</text></g></g><g transform="translate(-46,-150) scale(1,1)"><path fill="none" stroke="#000000" d="M 142 632 L 142 510" stroke-miterlimit="10"/></g><g transform="translate(-46,-150) scale(1,1)"><path fill="#FFFFFF" stroke="none" d="M 150.41903551203197 530.3253497152483 L 142 510 L 133.58096448796803 530.3253497152483"/></g><g transform="translate(-46,-150) scale(1,1)"><path fill="none" stroke="#000000" d="M 150.41903551203197 530.3253497152483 L 142 510 L 133.58096448796803 530.3253497152483 L 150.41903551203197 530.3253497152483" stroke-miterlimit="10"/></g><g transform="translate(-46,-150) scale(1,1)"><rect fill="#C0C0C0" stroke="none" x="735" y="639" width="156" height="120" opacity="0.2"/></g><g transform="translate(-46,-150) scale(1,1)"><rect fill="#ffffff" stroke="none" x="728" y="632" width="156" height="120"/></g><g transform="translate(-46,-150) scale(1,1)"><path fill="none" stroke="#000000" d="M 728 632 L 884 632 L 884 752 L 728 752 L 728 632 Z Z" stroke-miterlimit="10"/></g><g transform="translate(-46,-150) scale(1,1)"><path fill="none" stroke="#000000" d="M 728 670 L 884 670" stroke-miterlimit="10"/></g><g transform="translate(-46,-150) scale(1,1)"><g><path fill="none" stroke="none"/><text fill="#000000" stroke="none" font-family="Arial" font-size="13px" font-style="normal" font-weight="normal" text-decoration="none" x="763.5" y="649.5">«enumeration»</text></g></g><g transform="translate(-46,-150) scale(1,1)"><g><path fill="none" stroke="none"/><text fill="#000000" stroke="none" font-family="Arial" font-size="13px" font-style="normal" font-weight="bold" text-decoration="none" x="787" y="664.5">Status</text></g></g><g transform="translate(-46,-150) scale(1,1)"><g><path fill="none" stroke="none"/><text fill="#000000" stroke="none" font-family="Arial" font-size="13px" font-style="normal" font-weight="normal" text-decoration="none" x="733" y="687.5">Reserved</text></g></g><g transform="translate(-46,-150) scale(1,1)"><g><path fill="none" stroke="none"/><text fill="#000000" stroke="none" font-family="Arial" font-size="13px" font-style="normal" font-weight="normal" text-decoration="none" x="733" y="702.5">InMantenaince</text></g></g><g transform="translate(-46,-150) scale(1,1)"><g><path fill="none" stroke="none"/><text fill="#000000" stroke="none" font-family="Arial" font-size="13px" font-style="normal" font-weight="normal" text-decoration="none" x="733" y="717.5">InUse</text></g></g><g transform="translate(-46,-150) scale(1,1)"><g><path fill="none" stroke="none"/><text fill="#000000" stroke="none" font-family="Arial" font-size="13px" font-style="normal" font-weight="normal" text-decoration="none" x="733" y="732.5">InPitStop</text></g></g><g transform="translate(-46,-150) scale(1,1)"><g><path fill="none" stroke="none"/><text fill="#000000" stroke="none" font-family="Arial" font-size="13px" font-style="normal" font-weight="normal" text-decoration="none" x="733" y="747.5">Rentable</text></g></g><g transform="translate(-46,-150) scale(1,1)"><path fill="none" stroke="#000000" d="M 212 227 L 384 227" stroke-miterlimit="10"/></g><g transform="translate(-46,-150) scale(1,1)"><path fill="none" stroke="#000000" d="M 373.83732514237585 231.209517756016 L 384 227 L 373.83732514237585 222.790482243984" stroke-miterlimit="10"/></g><g transform="translate(-46,-150) scale(1,1)"><g><path fill="none" stroke="none"/><text fill="#000000" stroke="none" font-family="Arial" font-size="13px" font-style="normal" font-weight="normal" text-decoration="none" x="359" y="246">1</text></g></g><g transform="translate(-46,-150) scale(1,1)"><path fill="none" stroke="#000000" d="M 540 225 L 728 225" stroke-miterlimit="10"/></g><g transform="translate(-46,-150) scale(1,1)"><path fill="none" stroke="#000000" d="M 717.8373251423759 229.209517756016 L 728 225 L 717.8373251423758 220.790482243984" stroke-miterlimit="10"/></g><g transform="translate(-46,-150) scale(1,1)"><g><path fill="none" stroke="none"/><text fill="#000000" stroke="none" font-family="Arial" font-size="13px" font-style="normal" font-weight="normal" text-decoration="none" x="703" y="244">1</text></g></g><g transform="translate(-46,-150) scale(1,1)"><path fill="none" stroke="#000000" d="M 806 280 L 806 416" stroke-miterlimit="10"/></g><g transform="translate(-46,-150) scale(1,1)"><g><path fill="none" stroke="none"/><text fill="#000000" stroke="none" font-family="Arial" font-size="13px" font-style="normal" font-weight="normal" text-decoration="none" x="783" y="308">0..*</text></g></g><g transform="translate(-46,-150) scale(1,1)"><g><path fill="none" stroke="none"/><text fill="#000000" stroke="none" font-family="Arial" font-size="13px" font-style="normal" font-weight="normal" text-decoration="none" x="790" y="401">1</text></g></g><g transform="translate(-46,-150) scale(1,1)"><path fill="none" stroke="#000000" d="M 728 256 L 624 256 L 624 464 L 540 464" stroke-miterlimit="10"/></g><g transform="translate(-46,-150) scale(1,1)"><path fill="none" stroke="#000000" d="M 550.1626748576241 459.790482243984 L 540 464 L 550.1626748576241 468.209517756016" stroke-miterlimit="10"/></g><g transform="translate(-46,-150) scale(1,1)"><g><path fill="none" stroke="none"/><text fill="#000000" stroke="none" font-family="Arial" font-size="13px" font-style="normal" font-weight="normal" text-decoration="none" x="558" y="458">1</text></g></g><g transform="translate(-46,-150) scale(1,1)"><path fill="none" stroke="#000000" d="M 540 480 L 624 480 L 624 696 L 728 696" stroke-miterlimit="10"/></g><g transform="translate(-46,-150) scale(1,1)"><path fill="none" stroke="#000000" d="M 717.8373251423759 700.209517756016 L 728 696 L 717.8373251423758 691.790482243984" stroke-miterlimit="10"/></g><g transform="translate(-46,-150) scale(1,1)"><g><path fill="none" stroke="none"/><text fill="#000000" stroke="none" font-family="Arial" font-size="13px" font-style="normal" font-weight="normal" text-decoration="none" x="703" y="715">1</text></g></g><g transform="translate(-46,-150) scale(1,1)"><path fill="none" stroke="#000000" d="M 134 272 L 134 376 L 768 376 L 768 416" stroke-miterlimit="10"/></g><g transform="translate(-46,-150) scale(1,1)"><path fill="none" stroke="#000000" d="M 763.790482243984 405.83732514237585 L 768 416 L 772.209517756016 405.83732514237585" stroke-miterlimit="10"/></g><g transform="translate(-46,-150) scale(1,1)"><g><path fill="none" stroke="none"/><text fill="#000000" stroke="none" font-family="Arial" font-size="13px" font-style="normal" font-weight="normal" text-decoration="none" x="752" y="401">1</text></g></g><g transform="translate(-46,-150) scale(1,1)"><path fill="none" stroke="#000000" d="M 462 504 L 462 632" stroke-miterlimit="10"/></g><g transform="translate(-46,-150) scale(1,1)"><g><path fill="none" stroke="none"/><text fill="#000000" stroke="none" font-family="Arial" font-size="13px" font-style="normal" font-weight="normal" text-decoration="none" x="439" y="532">0..*</text></g></g><g transform="translate(-46,-150) scale(1,1)"><g><path fill="none" stroke="none"/><text fill="#000000" stroke="none" font-family="Arial" font-size="13px" font-style="normal" font-weight="normal" text-decoration="none" x="438" y="617">0..1</text></g></g><g transform="translate(-46,-150) scale(1,1)"><path fill="none" stroke="#000000" d="M 792 531 L 792 584 L 192 584 L 192 510" stroke-miterlimit="10"/></g><g transform="translate(-46,-150) scale(1,1)"><path fill="none" stroke="#000000" d="M 196.209517756016 520.1626748576241 L 192 510 L 187.790482243984 520.1626748576241" stroke-miterlimit="10"/></g><g transform="translate(-46,-150) scale(1,1)"><g><path fill="none" stroke="none"/><text fill="#000000" stroke="none" font-family="Arial" font-size="13px" font-style="normal" font-weight="normal" text-decoration="none" x="201" y="538">1</text></g></g><g transform="translate(-46,-150) scale(1,1)"><path fill="none" stroke="#000000" d="M 88 272 L 88 440" stroke-miterlimit="10"/></g><g transform="translate(-46,-150) scale(1,1)"><path fill="none" stroke="#000000" d="M 83.79048224398402 429.83732514237585 L 88 440 L 92.20951775601598 429.83732514237585" stroke-miterlimit="10"/></g><g transform="translate(-46,-150) scale(1,1)"><g><path fill="none" stroke="none"/><text fill="#000000" stroke="none" font-family="Arial" font-size="13px" font-style="normal" font-weight="normal" text-decoration="none" x="72" y="425">1</text></g></g></g></svg>